{"title":"The.Flowers.of.War.2011.HDRip.XviD.Feel-Free","uid":6925805,"size":1377610099,"categoryP":"video","categoryS":"movies","magnet":"?xt=urn:btih:6b28a2f9f8f1e4677a8d99cf735ad6b80b7b7046&amp;dn=The.Flowers.of.War.2011.HDRip.XviD.Feel-Free&amp;tr=udp%3A%2F%2Ftracker.openbittorrent.com%3A80&amp;tr=udp%3A%2F%2Fopen.demonii.com%3A1337&amp;tr=udp%3A%2F%2Ftracker.coppersurfer.tk%3A6969&amp;tr=udp%3A%2F%2Fexodus.desync.com%3A6969","seeders":0,"leechers":0,"uploader":"rcbcsk","files":9,"time":1325493059,"description":"Genre:Drama | History\nLanguage:English\nIMDb:http://www.imdb.com/title/tt1410063/\nSource:The Flowers Of War 2011 HD - RMVB Thanks!\n\nFormat : AVI\nFormat/Info : Audio Video Interleave\nFile size : 1.28 GiB\nDuration : 2h 25mn\nOverall bit rate : 1 258 Kbps\n\nVideo\nID : 0\nFormat : MPEG-4 Visual\nFormat profile : Advanced Simple@L5\nFormat settings, BVOP : Yes\nFormat settings, QPel : No\nFormat settings, GMC : No warppoints\nFormat settings, Matrix : Default (H.263)\nCodec ID : XVID\nCodec ID/Hint : XviD\nDuration : 2h 25mn\nBit rate : 1 056 Kbps\nWidth : 640 pixels\nHeight : 280 pixels\nDisplay aspect ratio : 2.25:1\nFrame rate : 25.000 fps\nColor space : YUV\nChroma subsampling : 4:2:0\nBit depth : 8 bits\nScan type : Progressive\nBits/(Pixel*Frame) : 0.236\nStream size : 1.08 GiB (84%)\nWriting library : XviD 1.2.1 (UTC 2008-12-04)\n\nAudio\nID : 1\nFormat : AC-3\nFormat/Info : Audio Coding 3\nMode extension : CM (complete main)\nCodec ID : 2000\nDuration : 2h 25mn\nBit rate mode : Constant\nBit rate : 192 Kbps\nChannel(s) : 2 channels\nChannel positions : Front: L R\nSampling rate : 48.0 KHz\nBit depth : 16 bits\nStream size : 200 MiB (15%)\nAlignment : Aligned on interleaves\nInterleave, duration : 40 ms (1.00 video frame)\nInterleave, preload duration : 512 ms\n\n\nPlot:\nA Westerner finds refuge with a group of women in a church during Japan's rape of Nanking in 1937. Posing as a priest, he attempts to lead the women to safety\n\n\n","torrent":{"xt":"urn:btih:6b28a2f9f8f1e4677a8d99cf735ad6b80b7b7046","amp;dn":"The.Flowers.of.War.2011.HDRip.XviD.Feel-Free","amp;tr":["udp%3A%2F%2Ftracker.openbittorrent.com%3A80","udp%3A%2F%2Fopen.demonii.com%3A1337","udp%3A%2F%2Ftracker.coppersurfer.tk%3A6969","udp%3A%2F%2Fexodus.desync.com%3A6969"],"infoHash":"6b28a2f9f8f1e4677a8d99cf735ad6b80b7b7046","infoHashBuffer":{"type":"Buffer","data":[107,40,162,249,248,241,228,103,122,141,153,207,115,90,214,184,11,123,112,70]},"announce":[],"urlList":[]}}